<?xml version="1.0" encoding="iso-8859-1"?>
<!-- Generator: Adobe Illustrator 18.1.1, SVG Export Plug-In . SVG Version: 6.00 Build 0)  -->
<!DOCTYPE svg PUBLIC "-//W3C//DTD SVG 1.1//EN" "http://www.w3.org/Graphics/SVG/1.1/DTD/svg11.dtd" [
	<!ENTITY ns_extend "http://ns.adobe.com/Extensibility/1.0/">
	<!ENTITY ns_ai "http://ns.adobe.com/AdobeIllustrator/10.0/">
	<!ENTITY ns_graphs "http://ns.adobe.com/Graphs/1.0/">
	<!ENTITY ns_vars "http://ns.adobe.com/Variables/1.0/">
	<!ENTITY ns_imrep "http://ns.adobe.com/ImageReplacement/1.0/">
	<!ENTITY ns_sfw "http://ns.adobe.com/SaveForWeb/1.0/">
	<!ENTITY ns_custom "http://ns.adobe.com/GenericCustomNamespace/1.0/">
	<!ENTITY ns_adobe_xpath "http://ns.adobe.com/XPath/1.0/">
]>
<svg version="1.1" id="&#x56FE;&#x5C42;_1" xmlns:x="&ns_extend;" xmlns:i="&ns_ai;" xmlns:graph="&ns_graphs;"
	 xmlns="http://www.w3.org/2000/svg" xmlns:xlink="http://www.w3.org/1999/xlink" x="0px" y="0px" viewBox="0 0 64 64"
	 enable-background="new 0 0 64 64" xml:space="preserve">
<metadata>
	<sfw  xmlns="&ns_sfw;">
		<slices></slices>
		<sliceSourceBounds  width="16383" height="776" y="-784" x="-8088" bottomLeftOrigin="true"></sliceSourceBounds>
	</sfw>
</metadata>
<path fill="#B5B5B6" d="M52,11H12c-1.657,0-3,1.343-3,3v36c0,1.657,1.343,3,3,3h40c1.657,0,3-1.343,3-3V14
	C55,12.343,53.657,11,52,11z M50.044,16.989c0,1.105-0.895,2-2,2c-1.105,0-2-0.895-2-2c0-1.105,0.895-2,2-2
	C49.148,14.989,50.044,15.885,50.044,16.989z M44.044,16.989c0,1.105-0.895,2-2,2c-1.105,0-2-0.895-2-2c0-1.105,0.895-2,2-2
	C43.148,14.989,44.044,15.885,44.044,16.989z M38.044,16.989c0,1.105-0.895,2-2,2c-1.105,0-2-0.895-2-2c0-1.105,0.895-2,2-2
	C37.148,14.989,38.044,15.885,38.044,16.989z M51,49H13V22h38V49z"/>
<path fill="#B5B5B6" d="M40.154,41.782l-5.862-5.862l5.209-1.367c0.575-0.151,0.983-0.661,1.003-1.255s-0.351-1.131-0.915-1.322
	l-14.251-4.813c-0.481-0.161-1.018-0.039-1.381,0.322c-0.362,0.361-0.488,0.895-0.327,1.379l4.768,14.255
	c0.184,0.551,0.699,0.88,1.276,0.88c0.014,0,0.028,0,0.042,0c0.594,0,1.106-0.384,1.259-0.958l1.405-5.246l5.87,5.88
	c0.263,0.263,0.607,0.4,0.952,0.4s0.689-0.129,0.952-0.392C40.68,43.158,40.68,42.308,40.154,41.782z"/>
</svg>
