<?xml version="1.0" encoding="iso-8859-1"?>
<!-- Generator: Adobe Illustrator 18.1.1, SVG Export Plug-In . SVG Version: 6.00 Build 0)  -->
<!DOCTYPE svg PUBLIC "-//W3C//DTD SVG 1.1//EN" "http://www.w3.org/Graphics/SVG/1.1/DTD/svg11.dtd" [
	<!ENTITY ns_extend "http://ns.adobe.com/Extensibility/1.0/">
	<!ENTITY ns_ai "http://ns.adobe.com/AdobeIllustrator/10.0/">
	<!ENTITY ns_graphs "http://ns.adobe.com/Graphs/1.0/">
	<!ENTITY ns_vars "http://ns.adobe.com/Variables/1.0/">
	<!ENTITY ns_imrep "http://ns.adobe.com/ImageReplacement/1.0/">
	<!ENTITY ns_sfw "http://ns.adobe.com/SaveForWeb/1.0/">
	<!ENTITY ns_custom "http://ns.adobe.com/GenericCustomNamespace/1.0/">
	<!ENTITY ns_adobe_xpath "http://ns.adobe.com/XPath/1.0/">
]>
<svg version="1.1" id="&#x56FE;&#x5C42;_1" xmlns:x="&ns_extend;" xmlns:i="&ns_ai;" xmlns:graph="&ns_graphs;"
	 xmlns="http://www.w3.org/2000/svg" xmlns:xlink="http://www.w3.org/1999/xlink" x="0px" y="0px" viewBox="0 0 24 24"
	 enable-background="new 0 0 24 24" xml:space="preserve">
<metadata>
	<sfw  xmlns="&ns_sfw;">
		<slices></slices>
		<sliceSourceBounds  width="1378.5" height="692" y="-691.04" x="21" bottomLeftOrigin="true"></sliceSourceBounds>
	</sfw>
</metadata>
<g>
	<path fill="#B5B5B6" d="M22,4.304C22,3.584,21.416,3,20.696,3H3.304C2.584,3,2,3.584,2,4.304v15.391C2,20.416,2.584,21,3.304,21
		h17.391C21.416,21,22,20.416,22,19.696V4.304z M20,19H4V5h16V19z"/>
	<path fill="#B5B5B6" d="M5.484,9h2.68L7.408,9.587c-0.211,0.162-0.251,0.467-0.089,0.678c0.095,0.123,0.238,0.19,0.382,0.19
		c0.102,0,0.205-0.032,0.293-0.099l1.92-1.473c0.12-0.092,0.189-0.234,0.188-0.385c-0.001-0.151-0.073-0.292-0.193-0.382
		l-1.92-1.434C7.777,6.522,7.474,6.566,7.316,6.78C7.156,6.992,7.2,7.269,7.413,7.429L8.212,8H5.484C5.218,8,5.003,8.234,5.003,8.5
		C5.003,8.766,5.218,9,5.484,9z"/>
	<path fill="#B5B5B6" d="M11.613,8.978c0.017-0.64,0.281-0.657,0.478-0.657c0.095,0,0.275,0.08,0.584,0.322
		c0.443,0.362,0.815,0.553,1.137,0.553c0.372,0,0.675-0.14,0.899-0.43c0.22-0.285,0.344-0.671,0.368-1.185l0.006-0.114h-0.8
		l-0.003,0.108c-0.004,0.227-0.049,0.401-0.133,0.533c-0.077,0.122-0.179,0.177-0.31,0.177c-0.106,0-0.319-0.072-0.737-0.403
		c-0.371-0.292-0.714-0.44-1.019-0.44c-0.369,0-0.673,0.146-0.902,0.436c-0.226,0.285-0.35,0.577-0.369,1.092l-0.005,0.017h0.801
		L11.613,8.978z"/>
	<rect x="16" y="6" fill="#B5B5B6" width="2" height="5"/>
</g>
</svg>
