<?xml version="1.0" encoding="iso-8859-1"?>
<!-- Generator: Adobe Illustrator 18.1.1, SVG Export Plug-In . SVG Version: 6.00 Build 0)  -->
<!DOCTYPE svg PUBLIC "-//W3C//DTD SVG 1.1//EN" "http://www.w3.org/Graphics/SVG/1.1/DTD/svg11.dtd" [
	<!ENTITY ns_extend "http://ns.adobe.com/Extensibility/1.0/">
	<!ENTITY ns_ai "http://ns.adobe.com/AdobeIllustrator/10.0/">
	<!ENTITY ns_graphs "http://ns.adobe.com/Graphs/1.0/">
	<!ENTITY ns_vars "http://ns.adobe.com/Variables/1.0/">
	<!ENTITY ns_imrep "http://ns.adobe.com/ImageReplacement/1.0/">
	<!ENTITY ns_sfw "http://ns.adobe.com/SaveForWeb/1.0/">
	<!ENTITY ns_custom "http://ns.adobe.com/GenericCustomNamespace/1.0/">
	<!ENTITY ns_adobe_xpath "http://ns.adobe.com/XPath/1.0/">
]>
<svg version="1.1" id="&#x56FE;&#x5C42;_1" xmlns:x="&ns_extend;" xmlns:i="&ns_ai;" xmlns:graph="&ns_graphs;"
	 xmlns="http://www.w3.org/2000/svg" xmlns:xlink="http://www.w3.org/1999/xlink" x="0px" y="0px" viewBox="0 0 24 24"
	 enable-background="new 0 0 24 24" xml:space="preserve">
<metadata>
	<sfw  xmlns="&ns_sfw;">
		<slices></slices>
		<sliceSourceBounds  width="1378.5" height="692" y="-691.04" x="21" bottomLeftOrigin="true"></sliceSourceBounds>
	</sfw>
</metadata>
<g>
	<path fill="#B5B5B6" d="M21,3.257C21,2.563,20.437,2,19.743,2H3.257C2.563,2,2,2.563,2,3.257v16.485C2,20.437,2.563,21,3.257,21
		h16.485C20.437,21,21,20.437,21,19.743V3.257z M11.133,8.305c-0.625-0.469-1.043-0.659-1.847-0.659C8.512,7.646,8,8.137,8,8.989V10
		h2v2H8v5H6v-5H4v-2h2V8.819c0-0.967,0.428-1.772,0.858-2.163c0.429-0.389,1.175-0.851,2.097-0.851c0.875,0,1.611,0.22,2.172,0.781
		L11.133,8.305z M18,17h-2v-3.29c0-1.186,0.038-2.342-1.156-2.342c-1.322,0-1.844,1.54-1.844,2.328V17h-2v-7h2v1.008
		c1-0.725,1.424-0.938,2.016-0.938c1.978,0,2.984,1.172,2.984,2.953V17z"/>
</g>
</svg>
