<?xml version="1.0" encoding="iso-8859-1"?>
<!-- Generator: Adobe Illustrator 18.1.1, SVG Export Plug-In . SVG Version: 6.00 Build 0)  -->
<!DOCTYPE svg PUBLIC "-//W3C//DTD SVG 1.1//EN" "http://www.w3.org/Graphics/SVG/1.1/DTD/svg11.dtd" [
	<!ENTITY ns_extend "http://ns.adobe.com/Extensibility/1.0/">
	<!ENTITY ns_ai "http://ns.adobe.com/AdobeIllustrator/10.0/">
	<!ENTITY ns_graphs "http://ns.adobe.com/Graphs/1.0/">
	<!ENTITY ns_vars "http://ns.adobe.com/Variables/1.0/">
	<!ENTITY ns_imrep "http://ns.adobe.com/ImageReplacement/1.0/">
	<!ENTITY ns_sfw "http://ns.adobe.com/SaveForWeb/1.0/">
	<!ENTITY ns_custom "http://ns.adobe.com/GenericCustomNamespace/1.0/">
	<!ENTITY ns_adobe_xpath "http://ns.adobe.com/XPath/1.0/">
]>
<svg version="1.1" id="&#x56FE;&#x5C42;_1" xmlns:x="&ns_extend;" xmlns:i="&ns_ai;" xmlns:graph="&ns_graphs;"
	 xmlns="http://www.w3.org/2000/svg" xmlns:xlink="http://www.w3.org/1999/xlink" x="0px" y="0px" viewBox="0 0 64 64"
	 enable-background="new 0 0 64 64" xml:space="preserve">
<metadata>
	<sfw  xmlns="&ns_sfw;">
		<slices></slices>
		<sliceSourceBounds  width="16383" height="776" y="-784" x="-8088" bottomLeftOrigin="true"></sliceSourceBounds>
	</sfw>
</metadata>
<path fill="#B5B5B6" d="M54.877,15H9.147C7.49,15,6,16.558,6,18.214v29.741C6,49.612,7.49,51,9.147,51h45.877
	C56.681,51,58,49.612,58,47.956V18.214C58,16.558,56.534,15,54.877,15z M19.201,41.566C17.841,42.522,16.079,43,13.916,43
	c-1.879,0-3.518-0.355-4.916-1.065v-3.277c1.617,1.169,3.359,1.753,5.227,1.753c2.502,0,3.753-0.819,3.753-2.458
	c0-0.699-0.273-1.275-0.819-1.729c-0.547-0.453-1.655-0.991-3.327-1.614c-2.01-0.808-3.316-1.608-3.917-2.401
	c-0.601-0.792-0.901-1.751-0.901-2.876c0-1.606,0.68-2.892,2.04-3.859c1.36-0.967,2.848-1.45,4.836-1.45
	c1.54,0,3.107,0.268,4.107,0.803v3.097c-1-0.874-2.704-1.311-4.418-1.311c-1.027,0-1.77,0.224-2.414,0.672
	c-0.645,0.448-0.92,1.038-0.92,1.77c0,0.721,0.255,1.284,0.72,1.688c0.464,0.404,1.505,0.923,3.101,1.557
	c2.021,0.754,3.392,1.535,4.103,2.343c0.71,0.809,1.068,1.808,1.068,2.999C21.238,39.302,20.561,40.61,19.201,41.566z
	 M34.736,41.566C33.376,42.522,31.847,43,29.684,43C27.804,43,26,42.645,25,41.935v-3.277c1,1.169,3.127,1.753,4.995,1.753
	c2.502,0,3.636-0.819,3.636-2.458c0-0.699-0.331-1.275-0.878-1.729c-0.547-0.453-1.684-0.991-3.356-1.614
	c-2.01-0.808-3.331-1.608-3.931-2.401c-0.601-0.792-0.909-1.751-0.909-2.876c0-1.606,0.676-2.892,2.037-3.859
	c1.36-0.967,3.078-1.45,5.067-1.45c1.54,0,3.338,0.268,4.338,0.803v3.097c-1-0.874-2.936-1.311-4.651-1.311
	c-1.027,0-1.886,0.224-2.53,0.672c-0.645,0.448-0.978,1.038-0.978,1.77c0,0.721,0.226,1.284,0.691,1.688
	c0.464,0.404,1.491,0.923,3.086,1.557c2.021,0.754,3.385,1.535,4.095,2.343c0.71,0.809,1.064,1.808,1.064,2.999
	C36.777,39.302,36.096,40.61,34.736,41.566z M54,43h-3v-8h-8v8h-3V24h3v8h8v-8h3V43z"/>
</svg>
