<?xml version="1.0" encoding="iso-8859-1"?>
<!-- Generator: Adobe Illustrator 18.0.0, SVG Export Plug-In . SVG Version: 6.00 Build 0)  -->
<!DOCTYPE svg PUBLIC "-//W3C//DTD SVG 1.1//EN" "http://www.w3.org/Graphics/SVG/1.1/DTD/svg11.dtd">
<svg version="1.1" id="&#x56FE;&#x5C42;_1" xmlns="http://www.w3.org/2000/svg" xmlns:xlink="http://www.w3.org/1999/xlink" x="0px"
	 y="0px" viewBox="0 0 30 20" enable-background="new 0 0 30 20" xml:space="preserve">
<g>
	<path opacity="0.1" fill="#FFFFFF" d="M25.667,19.5H4.333c-2.108,0-3.833-1.725-3.833-3.833V4.333C0.5,2.225,2.225,0.5,4.333,0.5
		h21.334c2.108,0,3.833,1.725,3.833,3.833v11.334C29.5,17.775,27.775,19.5,25.667,19.5z"/>
	<g>
		<path d="M12.919,8.542c0.583-0.363,1.256-0.546,2.019-0.546c1.413,0,2.12,0.742,2.12,2.226v3.773h-1.028v-0.906h-0.026
			c-0.406,0.696-1.005,1.044-1.797,1.044c-0.568,0-1.021-0.153-1.356-0.461s-0.503-0.723-0.503-1.245
			c0-1.096,0.647-1.733,1.944-1.913l1.738-0.244c0-0.957-0.396-1.436-1.188-1.436c-0.702,0-1.344,0.236-1.923,0.71V8.542z
			 M14.657,11.239c-0.481,0.063-0.813,0.184-0.994,0.36s-0.272,0.424-0.272,0.742c0,0.279,0.099,0.507,0.296,0.684
			c0.198,0.177,0.46,0.265,0.785,0.265c0.452,0,0.824-0.158,1.118-0.477c0.293-0.318,0.439-0.717,0.439-1.197v-0.563L14.657,11.239z
			"/>
		<path d="M19.03,13.035V14h-1.038V4.956h1.038v4.057h0.021c0.459-0.767,1.13-1.15,2.014-1.15c0.734,0,1.318,0.259,1.751,0.776
			s0.649,1.226,0.649,2.123c0,0.989-0.243,1.775-0.729,2.36C22.251,13.708,21.603,14,20.795,14c-0.763,0-1.344-0.321-1.743-0.965
			H19.03z M19.025,11.451c0,0.474,0.153,0.874,0.461,1.2c0.308,0.327,0.692,0.49,1.155,0.49c0.551,0,0.981-0.212,1.293-0.636
			c0.311-0.424,0.466-1.011,0.466-1.76c0-0.618-0.145-1.109-0.435-1.476c-0.289-0.365-0.686-0.549-1.187-0.549
			c-0.509,0-0.929,0.183-1.259,0.546c-0.33,0.364-0.495,0.827-0.495,1.389V11.451z"/>
	</g>
	<path fill="none" stroke="#CBCBCB" stroke-miterlimit="10" d="M25.5,19.5h-21c-2.209,0-4-1.791-4-4v-11c0-2.209,1.791-4,4-4h21
		c2.209,0,4,1.791,4,4v11C29.5,17.709,27.709,19.5,25.5,19.5z"/>
	<polygon points="13,5 10,5 9,5 6,5 6,6 9,6 9,14 10,14 10,6 13,6 	"/>
</g>
</svg>
