<?xml version="1.0" encoding="iso-8859-1"?>
<!-- Generator: Adobe Illustrator 18.0.0, SVG Export Plug-In . SVG Version: 6.00 Build 0)  -->
<!DOCTYPE svg PUBLIC "-//W3C//DTD SVG 1.1//EN" "http://www.w3.org/Graphics/SVG/1.1/DTD/svg11.dtd">
<svg version="1.1" id="&#x56FE;&#x5C42;_1" xmlns="http://www.w3.org/2000/svg" xmlns:xlink="http://www.w3.org/1999/xlink" x="0px"
	 y="0px" viewBox="0 0 30 20" enable-background="new 0 0 30 20" xml:space="preserve">
<g>
	<path opacity="0.1" fill="#FFFFFF" d="M25.667,19.5H4.333c-2.108,0-3.833-1.725-3.833-3.833V4.333C0.5,2.225,2.225,0.5,4.333,0.5
		h21.334c2.108,0,3.833,1.725,3.833,3.833v11.334C29.5,17.775,27.775,19.5,25.667,19.5z"/>
	<g>
		<path fill="none" stroke="#CBCBCB" stroke-miterlimit="10" d="M25.5,19.5h-21c-2.209,0-4-1.791-4-4v-11c0-2.209,1.791-4,4-4h21
			c2.209,0,4,1.791,4,4v11C29.5,17.709,27.709,19.5,25.5,19.5z"/>
	</g>
</g>
<line fill="none" stroke="#231815" stroke-miterlimit="10" x1="7" y1="9.5" x2="26" y2="9.5"/>
<polygon fill="#231815" stroke="#231815" stroke-linejoin="round" stroke-miterlimit="10" points="10.512,12.95 4.562,9.5 
	10.512,6.05 "/>
</svg>
