<?xml version="1.0" encoding="iso-8859-1"?>
<!-- Generator: Adobe Illustrator 18.1.1, SVG Export Plug-In . SVG Version: 6.00 Build 0)  -->
<!DOCTYPE svg PUBLIC "-//W3C//DTD SVG 1.1//EN" "http://www.w3.org/Graphics/SVG/1.1/DTD/svg11.dtd" [
	<!ENTITY ns_extend "http://ns.adobe.com/Extensibility/1.0/">
	<!ENTITY ns_ai "http://ns.adobe.com/AdobeIllustrator/10.0/">
	<!ENTITY ns_graphs "http://ns.adobe.com/Graphs/1.0/">
	<!ENTITY ns_vars "http://ns.adobe.com/Variables/1.0/">
	<!ENTITY ns_imrep "http://ns.adobe.com/ImageReplacement/1.0/">
	<!ENTITY ns_sfw "http://ns.adobe.com/SaveForWeb/1.0/">
	<!ENTITY ns_custom "http://ns.adobe.com/GenericCustomNamespace/1.0/">
	<!ENTITY ns_adobe_xpath "http://ns.adobe.com/XPath/1.0/">
]>
<svg version="1.1" id="&#x56FE;&#x5C42;_1" xmlns:x="&ns_extend;" xmlns:i="&ns_ai;" xmlns:graph="&ns_graphs;"
	 xmlns="http://www.w3.org/2000/svg" xmlns:xlink="http://www.w3.org/1999/xlink" x="0px" y="0px" viewBox="0 0 24 24"
	 enable-background="new 0 0 24 24" xml:space="preserve">
<metadata>
	<sfw  xmlns="&ns_sfw;">
		<slices></slices>
		<sliceSourceBounds  width="1378.5" height="692" y="-691.04" x="21" bottomLeftOrigin="true"></sliceSourceBounds>
	</sfw>
</metadata>
<path fill="#B5B5B6" d="M21.679,4.885H2.331C1.631,4.885,1,5.649,1,6.35v12.583c0,0.701,0.631,1.182,1.331,1.182h19.41
	c0.701,0,1.259-0.481,1.259-1.182V6.35C23,5.649,22.38,4.885,21.679,4.885z M6.585,16.23c-0.575,0.405-1.321,0.607-2.236,0.607
	c-0.795,0-1.488-0.15-2.08-0.451v-1.387c0.684,0.495,1.421,0.742,2.212,0.742c1.058,0,1.588-0.347,1.588-1.04
	c0-0.296-0.116-0.54-0.347-0.731c-0.231-0.192-0.7-0.419-1.407-0.683c-0.851-0.342-1.403-0.68-1.657-1.016
	c-0.254-0.335-0.381-0.741-0.381-1.217c0-0.679,0.288-1.224,0.863-1.633c0.575-0.409,1.205-0.614,2.046-0.614
	c0.652,0,1.315,0.113,1.738,0.34v1.31C6.5,10.088,5.779,9.903,5.054,9.903c-0.435,0-0.749,0.095-1.021,0.284
	c-0.273,0.19-0.389,0.439-0.389,0.749c0,0.305,0.108,0.543,0.304,0.714c0.196,0.171,0.637,0.391,1.312,0.659
	c0.855,0.319,1.435,0.649,1.736,0.991c0.3,0.342,0.452,0.765,0.452,1.269C7.447,15.272,7.16,15.826,6.585,16.23z M13.158,16.23
	c-0.575,0.405-1.222,0.607-2.138,0.607c-0.795,0-1.558-0.15-1.982-0.451v-1.387c0.423,0.495,1.323,0.742,2.113,0.742
	c1.058,0,1.539-0.347,1.539-1.04c0-0.296-0.14-0.54-0.371-0.731c-0.231-0.192-0.713-0.419-1.42-0.683
	c-0.851-0.342-1.409-0.68-1.663-1.016c-0.254-0.335-0.384-0.741-0.384-1.217c0-0.679,0.286-1.224,0.862-1.633
	c0.575-0.409,1.302-0.614,2.144-0.614c0.652,0,1.412,0.113,1.835,0.34v1.31c-0.423-0.37-1.242-0.555-1.968-0.555
	c-0.435,0-0.798,0.095-1.071,0.284c-0.273,0.19-0.414,0.439-0.414,0.749c0,0.305,0.096,0.543,0.292,0.714
	c0.196,0.171,0.631,0.391,1.306,0.659c0.855,0.319,1.432,0.649,1.733,0.991c0.3,0.342,0.45,0.765,0.45,1.269
	C14.021,15.272,13.733,15.826,13.158,16.23z M21.308,16.731h-1.269v-3.385h-3.385v3.385h-1.269V8.692h1.269v3.385h3.385V8.692h1.269
	V16.731z"/>
</svg>
