<?xml version="1.0" encoding="iso-8859-1"?>
<!-- Generator: Adobe Illustrator 18.1.1, SVG Export Plug-In . SVG Version: 6.00 Build 0)  -->
<!DOCTYPE svg PUBLIC "-//W3C//DTD SVG 1.1//EN" "http://www.w3.org/Graphics/SVG/1.1/DTD/svg11.dtd" [
	<!ENTITY ns_extend "http://ns.adobe.com/Extensibility/1.0/">
	<!ENTITY ns_ai "http://ns.adobe.com/AdobeIllustrator/10.0/">
	<!ENTITY ns_graphs "http://ns.adobe.com/Graphs/1.0/">
	<!ENTITY ns_vars "http://ns.adobe.com/Variables/1.0/">
	<!ENTITY ns_imrep "http://ns.adobe.com/ImageReplacement/1.0/">
	<!ENTITY ns_sfw "http://ns.adobe.com/SaveForWeb/1.0/">
	<!ENTITY ns_custom "http://ns.adobe.com/GenericCustomNamespace/1.0/">
	<!ENTITY ns_adobe_xpath "http://ns.adobe.com/XPath/1.0/">
]>
<svg version="1.1" id="&#x56FE;&#x5C42;_1" xmlns:x="&ns_extend;" xmlns:i="&ns_ai;" xmlns:graph="&ns_graphs;"
	 xmlns="http://www.w3.org/2000/svg" xmlns:xlink="http://www.w3.org/1999/xlink" x="0px" y="0px" viewBox="0 0 64 64"
	 enable-background="new 0 0 64 64" xml:space="preserve">
<metadata>
	<sfw  xmlns="&ns_sfw;">
		<slices></slices>
		<sliceSourceBounds  width="16383" height="776" y="-784" x="-8088" bottomLeftOrigin="true"></sliceSourceBounds>
	</sfw>
</metadata>
<g>
	<path fill="#B5B5B6" d="M52,11H12c-1.657,0-3,1.343-3,3v36c0,1.657,1.343,3,3,3h40c1.657,0,3-1.343,3-3V14
		C55,12.343,53.657,11,52,11z M51,49H13V15h38V49z"/>
	<path fill="#B5B5B6" d="M16,22h6.967l-1.571,1.206c-0.438,0.336-0.521,0.964-0.185,1.402C21.409,24.865,21.706,25,22.005,25
		c0.213,0,0.427-0.067,0.608-0.207l3.988-3.061c0.249-0.191,0.393-0.487,0.391-0.8c-0.002-0.313-0.151-0.607-0.402-0.794
		l-3.988-2.978c-0.441-0.331-1.069-0.24-1.399,0.203c-0.331,0.442-0.24,1.069,0.203,1.399L23.065,20H16c-0.552,0-1,0.448-1,1
		C15,21.552,15.448,22,16,22z"/>
	<path fill="#B5B5B6" d="M30.165,21.984c0.04-1.264,0.654-1.297,1.112-1.297c0.222,0,0.639,0.158,1.36,0.636
		c1.031,0.716,1.897,1.092,2.647,1.092c0.867,0,1.57-0.276,2.092-0.85c0.512-0.563,0.8-1.325,0.855-2.34L38.247,19h-1.862
		l-0.006,0.213c-0.01,0.448-0.115,0.793-0.311,1.053c-0.18,0.24-0.417,0.349-0.723,0.349c-0.246,0-0.743-0.142-1.716-0.797
		c-0.864-0.576-1.662-0.87-2.371-0.87c-0.859,0-1.565,0.289-2.099,0.861c-0.526,0.564-0.815,1.139-0.858,2.156L28.292,22h1.865
		L30.165,21.984z"/>
	<rect x="40" y="16" fill="#B5B5B6" width="5" height="10"/>
</g>
</svg>
