<?xml version="1.0" encoding="UTF-8"?>
<svg width="16px" height="16px" viewBox="0 0 16 16" version="1.1" xmlns="http://www.w3.org/2000/svg" xmlns:xlink="http://www.w3.org/1999/xlink">
    <!-- Generator: Sketch 47.1 (45422) - http://www.bohemiancoding.com/sketch -->
    <title>checkbox_checked_press</title>
    <desc>Created with Sketch.</desc>
    <defs>
        <linearGradient x1="50%" y1="0%" x2="50%" y2="100%" id="linearGradient-1">
            <stop stop-color="#0B8CFF" offset="0%"></stop>
            <stop stop-color="#0AA1FF" offset="100%"></stop>
        </linearGradient>
        <path d="M9.36430868,1 L2.33716475,1 C1.0463843,1 0,2.05227542 0,3.34328523 L0,12.6567148 C0,13.9508755 1.05227542,15 2.34328523,15 L11.6567148,15 C12.9508755,15 14,13.954308 14,12.6685402 L14,5.6613973" id="path-2"></path>
        <filter x="-14.3%" y="-7.1%" width="128.6%" height="128.6%" filterUnits="objectBoundingBox" id="filter-3">
            <feOffset dx="0" dy="1" in="SourceAlpha" result="shadowOffsetOuter1"></feOffset>
            <feGaussianBlur stdDeviation="0.5" in="shadowOffsetOuter1" result="shadowBlurOuter1"></feGaussianBlur>
            <feComposite in="shadowBlurOuter1" in2="SourceAlpha" operator="out" result="shadowBlurOuter1"></feComposite>
            <feColorMatrix values="0 0 0 0 0   0 0 0 0 0   0 0 0 0 0  0 0 0 0.05 0" type="matrix" in="shadowBlurOuter1"></feColorMatrix>
        </filter>
    </defs>
    <g id="Symbols" stroke="none" stroke-width="1" fill="none" fill-rule="evenodd">
        <g id="checkbox_checked_press">
            <g id="checkbox_checked_hover_press" transform="translate(1.000000, 0.000000)">
                <g id="checkbox-checked_insensitive">
                    <g id="Combined-Shape">
                        <use fill="black" fill-opacity="1" filter="url(#filter-3)" xlink:href="#path-2"></use>
                        <use fill="url(#linearGradient-1)" fill-rule="evenodd" xlink:href="#path-2"></use>
                        <path stroke-opacity="0.3" stroke="#1D82FF" stroke-width="1" d="M9.1563916,1.5 L2.33716475,1.5 C1.32400847,1.5 0.5,2.3269337 0.5,3.34328523 L0.5,12.6567148 C0.5,13.6735419 1.32722571,14.5 2.34328523,14.5 L11.6567148,14.5 C12.6745904,14.5 13.5,13.6783029 13.5,12.6685402 L13.5,5.86769471 L9.1563916,1.5 Z"></path>
                    </g>
                    <polyline id="Path-1112" stroke="#FFFFFF" stroke-width="1.5" points="2.88402778 8.01499605 6.125 11 13.8467277 1.11239656"></polyline>
                    <polygon id="Path-1112" fill="#0B96FF" fill-rule="nonzero" points="14.4378319 1.57401961 13.2556235 0.650773521 11.397522 3.04455566 12.4715576 4.08410644"></polygon>
                </g>
            </g>
        </g>
    </g>
</svg>