<?xml version="1.0" encoding="UTF-8"?>
<svg width="24px" height="26px" viewBox="0 0 24 26" version="1.1" xmlns="http://www.w3.org/2000/svg" xmlns:xlink="http://www.w3.org/1999/xlink">
    <!-- Generator: Sketch 47.1 (45422) - http://www.bohemiancoding.com/sketch -->
    <title>hide_password_hover</title>
    <desc>Created with Sketch.</desc>
    <defs>
        <linearGradient x1="50%" y1="0%" x2="50%" y2="96.8191964%" id="linearGradient-1">
            <stop stop-color="#8CCFFF" offset="0%"></stop>
            <stop stop-color="#4BB8FF" offset="100%"></stop>
        </linearGradient>
        <path d="M0,1 L0,25 L20,25 L20,25 C22.209139,25 24,23.209139 24,21 L24,5 L24,5 C24,2.790861 22.209139,1 20,1 L0,1 Z" id="path-2"></path>
        <filter x="-8.3%" y="-4.2%" width="116.7%" height="116.7%" filterUnits="objectBoundingBox" id="filter-3">
            <feOffset dx="0" dy="1" in="SourceAlpha" result="shadowOffsetOuter1"></feOffset>
            <feGaussianBlur stdDeviation="0.5" in="shadowOffsetOuter1" result="shadowBlurOuter1"></feGaussianBlur>
            <feComposite in="shadowBlurOuter1" in2="SourceAlpha" operator="out" result="shadowBlurOuter1"></feComposite>
            <feColorMatrix values="0 0 0 0 0   0 0 0 0 0   0 0 0 0 0  0 0 0 0.05 0" type="matrix" in="shadowBlurOuter1"></feColorMatrix>
        </filter>
    </defs>
    <g id="输入框" stroke="none" stroke-width="1" fill="none" fill-rule="evenodd">
        <g id="show_password_normal">
            <g id="按钮背景-2">
                <use fill="black" fill-opacity="1" filter="url(#filter-3)" xlink:href="#path-2"></use>
                <use fill="url(#linearGradient-1)" fill-rule="evenodd" xlink:href="#path-2"></use>
                <path stroke-opacity="0.2" stroke="#0076F3" stroke-width="1" d="M0.5,1.5 L0.5,24.5 L20,24.5 C21.9329966,24.5 23.5,22.9329966 23.5,21 L23.5,5 C23.5,3.06700338 21.9329966,1.5 20,1.5 L0.5,1.5 Z"></path>
            </g>
            <g id="eye" transform="translate(7.000000, 10.000000)" stroke="#FFFFFF" stroke-linecap="round">
                <path d="M0.5592708,3.6287071 C1.23885412,2.75604045 2.81171519,0.0489849546 5.59022902,0.0489849546 C8.36884007,0.0489849546 9.6238817,1.83884602 10.6212845,3.6287071" id="Stroke-1"></path>
                <path d="M9.261933,3.3305751 C9.261933,4.88515839 7.60429415,6.14545003 5.5594192,6.14545003 C3.51464146,6.14545003 1.85700261,4.88515839 1.85700261,3.3305751" id="Stroke-3"></path>
            </g>
        </g>
    </g>
</svg>