<?xml version="1.0" encoding="UTF-8"?>
<svg width="27px" height="23px" viewBox="0 0 27 23" version="1.1" xmlns="http://www.w3.org/2000/svg" xmlns:xlink="http://www.w3.org/1999/xlink">
    <!-- Generator: Sketch 47.1 (45422) - http://www.bohemiancoding.com/sketch -->
    <title>quit_fullscreen_dark_hover</title>
    <desc>Created with Sketch.</desc>
    <defs></defs>
    <g id="最大化最小化" stroke="none" stroke-width="1" fill="none" fill-rule="evenodd">
        <g id="Artboard-3" transform="translate(-19.000000, -102.000000)">
            <g id="quit_fullscreen_hover" transform="translate(19.000000, 102.000000)">
                <rect id="Rectangle-11" fill-opacity="0.288836051" fill="#000000" opacity="0" x="0" y="0" width="27" height="23"></rect>
                <rect id="Rectangle-62" fill-opacity="0.15" fill="#FFFFFF" x="4" y="2" width="19" height="19" rx="2"></rect>
                <path d="M15,8.75 L15,6.25 L15,5 L16,5 L19,5 L20,5 L20,6.25 L20,8.75 L20,10 L19,10 L16,10 L15,10 L15,8.75 Z M16,9 L20,9 L20,5 L16,5 L16,9 Z M12,14.25 L12,16.75 L12,18 L11,18 L8,18 L7,18 L7,16.75 L7,14.25 L7,13 L8,13 L11,13 L12,13 L12,14.25 Z M11,14 L7,14 L7,18 L11,18 L11,14 Z" id="Combined-Shape" fill="#FFFFFF"></path>
            </g>
        </g>
    </g>
</svg>