<?xml version="1.0" encoding="UTF-8" standalone="no"?>
<svg
   xmlns:dc="http://purl.org/dc/elements/1.1/"
   xmlns:cc="http://creativecommons.org/ns#"
   xmlns:rdf="http://www.w3.org/1999/02/22-rdf-syntax-ns#"
   xmlns:svg="http://www.w3.org/2000/svg"
   xmlns="http://www.w3.org/2000/svg"
   xmlns:sodipodi="http://sodipodi.sourceforge.net/DTD/sodipodi-0.dtd"
   xmlns:inkscape="http://www.inkscape.org/namespaces/inkscape"
   width="8"
   height="8"
   viewBox="0 0 8 8"
   version="1.1"
   id="svg8"
   sodipodi:docname="resize_grip.svg"
   inkscape:version="0.92.1 r15371">
  <metadata
     id="metadata14">
    <rdf:RDF>
      <cc:Work
         rdf:about="">
        <dc:format>image/svg+xml</dc:format>
        <dc:type
           rdf:resource="http://purl.org/dc/dcmitype/StillImage" />
        <dc:title />
      </cc:Work>
    </rdf:RDF>
  </metadata>
  <defs
     id="defs12" />
  <sodipodi:namedview
     pagecolor="#ffffff"
     bordercolor="#666666"
     borderopacity="1"
     objecttolerance="10"
     gridtolerance="10"
     guidetolerance="10"
     inkscape:pageopacity="0"
     inkscape:pageshadow="2"
     inkscape:window-width="1920"
     inkscape:window-height="999"
     id="namedview10"
     showgrid="false"
     inkscape:zoom="66.75088"
     inkscape:cx="4.373029"
     inkscape:cy="5.3314098"
     inkscape:window-x="0"
     inkscape:window-y="0"
     inkscape:window-maximized="1"
     inkscape:current-layer="g6" />
  <g
     id="g6"
     transform="rotate(-45.229347,-45.152817,15.312598)"
     style="fill:none;fill-rule:evenodd">
    <rect
       width="40"
       height="40"
       id="rect2"
       x="0"
       y="0"
       style="fill:#34344b;fill-opacity:0" />
    <polygon
       points="25,20 25,19 24.529,19 15.471,19 15,19 15,20 15.471,20 24.529,20 "
       id="polygon4"
       style="fill:#2ca7f8;fill-opacity:0.61;fill-rule:nonzero"
       transform="translate(-22.50611,22.713108)" />
    <polygon
       points="25,19 24.529,19 15.471,19 15,19 15,20 15.471,20 24.529,20 25,20 "
       id="polygon4-3"
       style="fill:#2ca7f8;fill-opacity:0.61000001;fill-rule:nonzero"
       transform="matrix(0.61960837,0,0,0.61960837,-14.911079,32.35785)" />
    <polygon
       points="25,20 25,19 24.529,19 15.471,19 15,19 15,20 15.471,20 24.529,20 "
       id="polygon4-3-6"
       style="fill:#2ca7f8;fill-opacity:0.61000001;fill-rule:nonzero"
       transform="matrix(0.28172919,0,0,0.28172919,-8.17074,40.799488)" />
  </g>
</svg>
