<?xml version="1.0" encoding="UTF-8"?>
<svg width="27px" height="23px" viewBox="0 0 27 23" version="1.1" xmlns="http://www.w3.org/2000/svg" xmlns:xlink="http://www.w3.org/1999/xlink">
    <!-- Generator: Sketch 47.1 (45422) - http://www.bohemiancoding.com/sketch -->
    <title>window_menu_dark_normal</title>
    <desc>Created with Sketch.</desc>
    <defs></defs>
    <g id="最大化最小化" stroke="none" stroke-width="1" fill="none" fill-rule="evenodd">
        <g id="Artboard-3" transform="translate(-94.000000, -48.000000)">
            <g id="menu_normal" transform="translate(94.000000, 48.000000)">
                <g>
                    <rect id="Rectangle-13" fill-opacity="0.288836051" fill="#000000" opacity="0" x="0" y="0" width="27" height="23"></rect>
                    <g id="Group" transform="translate(9.000000, 7.000000)" fill-rule="nonzero" fill="#FFFFFF" opacity="0.6">
                        <path d="M0.4375,1 L0,1 L0,0 L0.4375,0 L6.5625,0 L7,0 L7,1 L6.5625,1 L0.4375,1 Z M0.423529412,5 L0,5 L0,4 L0.423529412,4 L8.57647059,4 L9,4 L9,5 L8.57647059,5 L0.423529412,5 Z M0.423529412,9 L0,9 L0,8 L0.423529412,8 L8.57647059,8 L9,8 L9,9 L8.57647059,9 L0.423529412,9 Z" id="Combined-Shape"></path>
                    </g>
                </g>
            </g>
        </g>
    </g>
</svg>