<svg xmlns="http://www.w3.org/2000/svg" width="40" height="40" viewBox="0 0 40 40">
  <g fill="none" fill-rule="evenodd">
    <rect width="40" height="40" fill="#636381" fill-opacity=".1"/>
    <path fill="#303030" fill-rule="nonzero" d="M7.5625,1 L0.4375,1 L0,1 L0,0 L0.4375,0 L7.5625,0 L8,0 L8,1 L7.5625,1 Z M9.57647059,5 L0.423529412,5 L0,5 L0,4 L0.423529412,4 L9.57647059,4 L10,4 L10,5 L9.57647059,5 Z M9.57647059,9 L0.423529412,9 L0,9 L0,8 L0.423529412,8 L9.57647059,8 L10,8 L10,9 L9.57647059,9 Z" transform="translate(15 15)"/>
  </g>
</svg>
