<?xml version="1.0" encoding="UTF-8"?>
<svg width="27px" height="23px" viewBox="0 0 27 23" version="1.1" xmlns="http://www.w3.org/2000/svg" xmlns:xlink="http://www.w3.org/1999/xlink">
    <!-- Generator: Sketch 47.1 (45422) - http://www.bohemiancoding.com/sketch -->
    <title>window_menu_light_normal</title>
    <desc>Created with Sketch.</desc>
    <defs></defs>
    <g id="最大化最小化" stroke="none" stroke-width="1" fill="none" fill-rule="evenodd">
        <g id="浅色-无阴影" transform="translate(-101.000000, -53.000000)">
            <g id="menu_normal" transform="translate(101.000000, 53.000000)">
                <rect id="Rectangle-13" fill-opacity="0.288836051" fill="#000000" opacity="0" x="0" y="0" width="27" height="23"></rect>
                <g id="Group" stroke-width="1" transform="translate(9.000000, 7.000000)" fill="#303030">
                    <polygon id="Line" fill-rule="nonzero" points="0.4375 1 6.5625 1 7 1 7 0 6.5625 0 0.4375 0 0 0 0 1"></polygon>
                    <polygon id="Line" fill-rule="nonzero" points="0.423529412 5 8.57647059 5 9 5 9 4 8.57647059 4 0.423529412 4 0 4 0 5"></polygon>
                    <polygon id="Line" fill-rule="nonzero" points="0.423529412 9 8.57647059 9 9 9 9 8 8.57647059 8 0.423529412 8 0 8 0 9"></polygon>
                </g>
            </g>
        </g>
    </g>
</svg>